<mxfile host="app.diagrams.net" modified="2023-06-09T06:29:14.508Z" agent="Mozilla/5.0 (Windows NT 10.0; Win64; x64) AppleWebKit/537.36 (KHTML, like Gecko) Chrome/114.0.0.0 Safari/537.36" etag="lgvE4pvAzvfE4Lc8yE9t" version="21.3.7" type="device" pages="3">
  <diagram id="jcEQUKhPnrgm7vaCW7k-" name="第 1 页">
    <mxGraphModel dx="1576" dy="847" grid="0" gridSize="10" guides="1" tooltips="1" connect="1" arrows="1" fold="1" page="0" pageScale="1" pageWidth="827" pageHeight="1169" background="none" math="0" shadow="0">
      <root>
        <mxCell id="0" />
        <mxCell id="1" style="locked=1;" parent="0" />
        <mxCell id="3" value="" style="endArrow=classic;html=1;entryX=0;entryY=0.5;entryDx=0;entryDy=0;" parent="1" target="4" edge="1">
          <mxGeometry width="50" height="50" relative="1" as="geometry">
            <mxPoint x="100" y="279.5" as="sourcePoint" />
            <mxPoint x="180" y="280" as="targetPoint" />
            <Array as="points" />
          </mxGeometry>
        </mxCell>
        <mxCell id="4" value="查看文章" style="ellipse;whiteSpace=wrap;html=1;" parent="1" vertex="1">
          <mxGeometry x="200" y="260" width="120" height="40" as="geometry" />
        </mxCell>
        <mxCell id="5" value="访客" style="shape=umlActor;verticalLabelPosition=bottom;verticalAlign=top;html=1;outlineConnect=0;" parent="1" vertex="1">
          <mxGeometry x="40" y="220" width="40" height="70" as="geometry" />
        </mxCell>
        <mxCell id="7" value="" style="endArrow=classic;html=1;entryX=0;entryY=0.5;entryDx=0;entryDy=0;" parent="1" target="8" edge="1">
          <mxGeometry width="50" height="50" relative="1" as="geometry">
            <mxPoint x="100" y="290" as="sourcePoint" />
            <mxPoint x="180" y="330" as="targetPoint" />
            <Array as="points">
              <mxPoint x="100" y="290" />
            </Array>
          </mxGeometry>
        </mxCell>
        <mxCell id="8" value="查看志愿团体" style="ellipse;whiteSpace=wrap;html=1;" parent="1" vertex="1">
          <mxGeometry x="200" y="320" width="120" height="40" as="geometry" />
        </mxCell>
        <mxCell id="9" value="查看志愿活动" style="ellipse;whiteSpace=wrap;html=1;" parent="1" vertex="1">
          <mxGeometry x="200" y="200" width="120" height="40" as="geometry" />
        </mxCell>
        <mxCell id="10" value="查看学习资料" style="ellipse;whiteSpace=wrap;html=1;" parent="1" vertex="1">
          <mxGeometry x="200" y="380" width="120" height="40" as="geometry" />
        </mxCell>
        <mxCell id="11" value="注册账号" style="ellipse;whiteSpace=wrap;html=1;" parent="1" vertex="1">
          <mxGeometry x="200" y="140" width="120" height="40" as="geometry" />
        </mxCell>
        <mxCell id="12" value="登录" style="ellipse;whiteSpace=wrap;html=1;" parent="1" vertex="1">
          <mxGeometry x="200" y="80" width="120" height="40" as="geometry" />
        </mxCell>
        <mxCell id="15" value="" style="endArrow=classic;html=1;entryX=0;entryY=0.5;entryDx=0;entryDy=0;" parent="1" target="10" edge="1">
          <mxGeometry width="50" height="50" relative="1" as="geometry">
            <mxPoint x="100" y="310" as="sourcePoint" />
            <mxPoint x="190" y="390" as="targetPoint" />
          </mxGeometry>
        </mxCell>
        <mxCell id="16" value="" style="endArrow=classic;html=1;" parent="1" edge="1">
          <mxGeometry width="50" height="50" relative="1" as="geometry">
            <mxPoint x="100" y="260" as="sourcePoint" />
            <mxPoint x="200" y="220" as="targetPoint" />
          </mxGeometry>
        </mxCell>
        <mxCell id="17" value="" style="endArrow=classic;html=1;" parent="1" edge="1">
          <mxGeometry width="50" height="50" relative="1" as="geometry">
            <mxPoint x="100" y="230" as="sourcePoint" />
            <mxPoint x="200" y="170" as="targetPoint" />
          </mxGeometry>
        </mxCell>
        <mxCell id="18" value="" style="endArrow=classic;html=1;entryX=0.05;entryY=0.781;entryDx=0;entryDy=0;entryPerimeter=0;" parent="1" target="12" edge="1">
          <mxGeometry width="50" height="50" relative="1" as="geometry">
            <mxPoint x="90" y="210" as="sourcePoint" />
            <mxPoint x="190" y="120" as="targetPoint" />
          </mxGeometry>
        </mxCell>
        <mxCell id="69" style="edgeStyle=none;html=1;exitX=1;exitY=0.3333333333333333;exitDx=0;exitDy=0;exitPerimeter=0;" parent="1" source="19" edge="1">
          <mxGeometry relative="1" as="geometry">
            <mxPoint x="50.66666666666674" y="517" as="targetPoint" />
          </mxGeometry>
        </mxCell>
        <mxCell id="19" value="用户" style="shape=umlActor;verticalLabelPosition=bottom;verticalAlign=top;html=1;outlineConnect=0;" parent="1" vertex="1">
          <mxGeometry x="-10" y="480" width="60" height="110" as="geometry" />
        </mxCell>
        <mxCell id="20" value="用户信息管理" style="ellipse;whiteSpace=wrap;html=1;" parent="1" vertex="1">
          <mxGeometry x="135" y="500" width="120" height="40" as="geometry" />
        </mxCell>
        <mxCell id="21" value="查看其他用户信息" style="ellipse;whiteSpace=wrap;html=1;" parent="1" vertex="1">
          <mxGeometry x="140" y="590" width="120" height="40" as="geometry" />
        </mxCell>
        <mxCell id="22" value="收藏文章" style="ellipse;whiteSpace=wrap;html=1;" parent="1" vertex="1">
          <mxGeometry x="294" y="620" width="120" height="40" as="geometry" />
        </mxCell>
        <mxCell id="23" value="操作文章" style="ellipse;whiteSpace=wrap;html=1;" parent="1" vertex="1">
          <mxGeometry x="135" y="770" width="130" height="40" as="geometry" />
        </mxCell>
        <mxCell id="24" value="发布文章" style="ellipse;whiteSpace=wrap;html=1;" parent="1" vertex="1">
          <mxGeometry x="320" y="680" width="120" height="40" as="geometry" />
        </mxCell>
        <mxCell id="25" value="查看文章" style="ellipse;whiteSpace=wrap;html=1;" parent="1" vertex="1">
          <mxGeometry x="340" y="740" width="120" height="40" as="geometry" />
        </mxCell>
        <mxCell id="26" value="修改文章" style="ellipse;whiteSpace=wrap;html=1;" parent="1" vertex="1">
          <mxGeometry x="340" y="810" width="120" height="40" as="geometry" />
        </mxCell>
        <mxCell id="27" value="删除文章" style="ellipse;whiteSpace=wrap;html=1;" parent="1" vertex="1">
          <mxGeometry x="330" y="870" width="120" height="40" as="geometry" />
        </mxCell>
        <mxCell id="28" value="点赞文章" style="ellipse;whiteSpace=wrap;html=1;" parent="1" vertex="1">
          <mxGeometry x="294" y="930" width="120" height="40" as="geometry" />
        </mxCell>
        <mxCell id="29" value="" style="endArrow=none;dashed=1;html=1;exitX=0.915;exitY=0.211;exitDx=0;exitDy=0;exitPerimeter=0;" parent="1" source="23" edge="1">
          <mxGeometry width="50" height="50" relative="1" as="geometry">
            <mxPoint x="240" y="770" as="sourcePoint" />
            <mxPoint x="320" y="660" as="targetPoint" />
          </mxGeometry>
        </mxCell>
        <mxCell id="32" value="" style="endArrow=none;dashed=1;html=1;entryX=0;entryY=1;entryDx=0;entryDy=0;exitX=1;exitY=0.5;exitDx=0;exitDy=0;" parent="1" source="23" target="24" edge="1">
          <mxGeometry width="50" height="50" relative="1" as="geometry">
            <mxPoint x="260" y="780" as="sourcePoint" />
            <mxPoint x="280" y="830" as="targetPoint" />
          </mxGeometry>
        </mxCell>
        <mxCell id="33" value="" style="endArrow=none;dashed=1;html=1;entryX=0.068;entryY=0.752;entryDx=0;entryDy=0;entryPerimeter=0;" parent="1" target="25" edge="1">
          <mxGeometry width="50" height="50" relative="1" as="geometry">
            <mxPoint x="270" y="790" as="sourcePoint" />
            <mxPoint x="280" y="830" as="targetPoint" />
          </mxGeometry>
        </mxCell>
        <mxCell id="36" value="" style="endArrow=none;dashed=1;html=1;entryX=-0.015;entryY=0.336;entryDx=0;entryDy=0;entryPerimeter=0;" parent="1" target="26" edge="1">
          <mxGeometry width="50" height="50" relative="1" as="geometry">
            <mxPoint x="270" y="790" as="sourcePoint" />
            <mxPoint x="330" y="820" as="targetPoint" />
            <Array as="points">
              <mxPoint x="260" y="800" />
            </Array>
          </mxGeometry>
        </mxCell>
        <mxCell id="37" value="" style="endArrow=none;dashed=1;html=1;exitX=0.954;exitY=0.929;exitDx=0;exitDy=0;exitPerimeter=0;entryX=0;entryY=0;entryDx=0;entryDy=0;" parent="1" source="23" target="27" edge="1">
          <mxGeometry width="50" height="50" relative="1" as="geometry">
            <mxPoint x="230" y="880" as="sourcePoint" />
            <mxPoint x="280" y="830" as="targetPoint" />
          </mxGeometry>
        </mxCell>
        <mxCell id="38" value="" style="endArrow=none;dashed=1;html=1;exitX=0.794;exitY=0.981;exitDx=0;exitDy=0;exitPerimeter=0;entryX=0.014;entryY=0.148;entryDx=0;entryDy=0;entryPerimeter=0;" parent="1" source="23" target="28" edge="1">
          <mxGeometry width="50" height="50" relative="1" as="geometry">
            <mxPoint x="230" y="880" as="sourcePoint" />
            <mxPoint x="280" y="830" as="targetPoint" />
          </mxGeometry>
        </mxCell>
        <mxCell id="44" value="用户信息修改" style="ellipse;whiteSpace=wrap;html=1;" parent="1" vertex="1">
          <mxGeometry x="280" y="440" width="120" height="40" as="geometry" />
        </mxCell>
        <mxCell id="45" value="用户注销" style="ellipse;whiteSpace=wrap;html=1;" parent="1" vertex="1">
          <mxGeometry x="300" y="490" width="120" height="40" as="geometry" />
        </mxCell>
        <mxCell id="46" value="查询自己的信息" style="ellipse;whiteSpace=wrap;html=1;" parent="1" vertex="1">
          <mxGeometry x="300" y="545" width="120" height="40" as="geometry" />
        </mxCell>
        <mxCell id="47" value="" style="endArrow=none;dashed=1;html=1;" parent="1" edge="1">
          <mxGeometry width="50" height="50" relative="1" as="geometry">
            <mxPoint x="250" y="510" as="sourcePoint" />
            <mxPoint x="290" y="470" as="targetPoint" />
          </mxGeometry>
        </mxCell>
        <mxCell id="48" value="" style="endArrow=none;dashed=1;html=1;exitX=1;exitY=0.5;exitDx=0;exitDy=0;" parent="1" source="20" edge="1">
          <mxGeometry width="50" height="50" relative="1" as="geometry">
            <mxPoint x="260" y="560" as="sourcePoint" />
            <mxPoint x="300" y="510" as="targetPoint" />
          </mxGeometry>
        </mxCell>
        <mxCell id="49" value="" style="endArrow=none;dashed=1;html=1;exitX=0.915;exitY=0.94;exitDx=0;exitDy=0;exitPerimeter=0;entryX=0.002;entryY=0.346;entryDx=0;entryDy=0;entryPerimeter=0;" parent="1" source="20" target="46" edge="1">
          <mxGeometry width="50" height="50" relative="1" as="geometry">
            <mxPoint x="250" y="570" as="sourcePoint" />
            <mxPoint x="300" y="520" as="targetPoint" />
          </mxGeometry>
        </mxCell>
        <mxCell id="50" value="操作志愿团队" style="ellipse;whiteSpace=wrap;html=1;" parent="1" vertex="1">
          <mxGeometry x="-70" y="750" width="120" height="40" as="geometry" />
        </mxCell>
        <mxCell id="51" value="查看志愿团队" style="ellipse;whiteSpace=wrap;html=1;" parent="1" vertex="1">
          <mxGeometry x="-10" y="890" width="120" height="40" as="geometry" />
        </mxCell>
        <mxCell id="52" value="加入志愿团队" style="ellipse;whiteSpace=wrap;html=1;" parent="1" vertex="1">
          <mxGeometry x="120" y="890" width="120" height="40" as="geometry" />
        </mxCell>
        <mxCell id="53" value="关注志愿团队" style="ellipse;whiteSpace=wrap;html=1;" parent="1" vertex="1">
          <mxGeometry x="-140" y="890" width="120" height="40" as="geometry" />
        </mxCell>
        <mxCell id="54" value="" style="endArrow=none;dashed=1;html=1;exitX=0.664;exitY=1.15;exitDx=0;exitDy=0;exitPerimeter=0;entryX=0.5;entryY=0;entryDx=0;entryDy=0;" parent="1" source="50" target="51" edge="1">
          <mxGeometry width="50" height="50" relative="1" as="geometry">
            <mxPoint x="250" y="1130" as="sourcePoint" />
            <mxPoint x="300" y="1080" as="targetPoint" />
          </mxGeometry>
        </mxCell>
        <mxCell id="55" value="" style="endArrow=none;dashed=1;html=1;entryX=0.303;entryY=0.039;entryDx=0;entryDy=0;entryPerimeter=0;exitX=1;exitY=1;exitDx=0;exitDy=0;" parent="1" source="50" target="52" edge="1">
          <mxGeometry width="50" height="50" relative="1" as="geometry">
            <mxPoint x="70" y="810" as="sourcePoint" />
            <mxPoint x="340" y="1060" as="targetPoint" />
          </mxGeometry>
        </mxCell>
        <mxCell id="56" value="" style="endArrow=none;dashed=1;html=1;exitX=0.372;exitY=1.108;exitDx=0;exitDy=0;exitPerimeter=0;" parent="1" source="50" edge="1">
          <mxGeometry width="50" height="50" relative="1" as="geometry">
            <mxPoint x="250" y="1130" as="sourcePoint" />
            <mxPoint x="-80" y="890" as="targetPoint" />
          </mxGeometry>
        </mxCell>
        <mxCell id="57" value="创建团队" style="ellipse;whiteSpace=wrap;html=1;" parent="1" vertex="1">
          <mxGeometry x="-270" y="890" width="120" height="40" as="geometry" />
        </mxCell>
        <mxCell id="59" value="" style="endArrow=none;dashed=1;html=1;exitX=0;exitY=1;exitDx=0;exitDy=0;entryX=0.419;entryY=0.136;entryDx=0;entryDy=0;entryPerimeter=0;" parent="1" source="50" target="57" edge="1">
          <mxGeometry width="50" height="50" relative="1" as="geometry">
            <mxPoint x="310" y="1130" as="sourcePoint" />
            <mxPoint x="360" y="1080" as="targetPoint" />
          </mxGeometry>
        </mxCell>
        <mxCell id="60" value="操作志愿活动" style="ellipse;whiteSpace=wrap;html=1;" parent="1" vertex="1">
          <mxGeometry x="-190" y="565" width="120" height="40" as="geometry" />
        </mxCell>
        <mxCell id="62" value="收藏志愿活动" style="ellipse;whiteSpace=wrap;html=1;" parent="1" vertex="1">
          <mxGeometry x="-350" y="490" width="120" height="40" as="geometry" />
        </mxCell>
        <mxCell id="63" value="报名志愿活动" style="ellipse;whiteSpace=wrap;html=1;" parent="1" vertex="1">
          <mxGeometry x="-380" y="565" width="120" height="40" as="geometry" />
        </mxCell>
        <mxCell id="64" value="查看志愿活动" style="ellipse;whiteSpace=wrap;html=1;" parent="1" vertex="1">
          <mxGeometry x="-350" y="640" width="120" height="50" as="geometry" />
        </mxCell>
        <mxCell id="66" value="" style="endArrow=none;dashed=1;html=1;exitX=0.965;exitY=0.886;exitDx=0;exitDy=0;exitPerimeter=0;" parent="1" source="62" edge="1">
          <mxGeometry width="50" height="50" relative="1" as="geometry">
            <mxPoint x="-200" y="640" as="sourcePoint" />
            <mxPoint x="-180" y="570" as="targetPoint" />
          </mxGeometry>
        </mxCell>
        <mxCell id="67" value="" style="endArrow=none;dashed=1;html=1;exitX=1;exitY=0.5;exitDx=0;exitDy=0;" parent="1" source="63" edge="1">
          <mxGeometry width="50" height="50" relative="1" as="geometry">
            <mxPoint x="-200" y="640" as="sourcePoint" />
            <mxPoint x="-190" y="585" as="targetPoint" />
          </mxGeometry>
        </mxCell>
        <mxCell id="68" value="" style="endArrow=none;dashed=1;html=1;exitX=0.997;exitY=0.342;exitDx=0;exitDy=0;exitPerimeter=0;entryX=0;entryY=1;entryDx=0;entryDy=0;" parent="1" source="64" target="60" edge="1">
          <mxGeometry width="50" height="50" relative="1" as="geometry">
            <mxPoint x="-200" y="640" as="sourcePoint" />
            <mxPoint x="-150" y="590" as="targetPoint" />
          </mxGeometry>
        </mxCell>
        <mxCell id="70" value="" style="endArrow=classic;html=1;entryX=1;entryY=0.5;entryDx=0;entryDy=0;" parent="1" source="19" target="60" edge="1">
          <mxGeometry width="50" height="50" relative="1" as="geometry">
            <mxPoint x="-50" y="630" as="sourcePoint" />
            <mxPoint y="580" as="targetPoint" />
          </mxGeometry>
        </mxCell>
        <mxCell id="71" value="" style="endArrow=classic;html=1;entryX=0.5;entryY=0;entryDx=0;entryDy=0;" parent="1" target="50" edge="1">
          <mxGeometry width="50" height="50" relative="1" as="geometry">
            <mxPoint x="-10" y="600" as="sourcePoint" />
            <mxPoint y="580" as="targetPoint" />
          </mxGeometry>
        </mxCell>
        <mxCell id="73" value="" style="endArrow=classic;html=1;entryX=0.395;entryY=-0.036;entryDx=0;entryDy=0;entryPerimeter=0;" parent="1" target="23" edge="1">
          <mxGeometry width="50" height="50" relative="1" as="geometry">
            <mxPoint x="60" y="600" as="sourcePoint" />
            <mxPoint y="580" as="targetPoint" />
          </mxGeometry>
        </mxCell>
        <mxCell id="74" value="" style="endArrow=classic;html=1;" parent="1" edge="1">
          <mxGeometry width="50" height="50" relative="1" as="geometry">
            <mxPoint x="60" y="520" as="sourcePoint" />
            <mxPoint x="130" y="520" as="targetPoint" />
          </mxGeometry>
        </mxCell>
        <mxCell id="75" value="" style="endArrow=classic;html=1;entryX=0;entryY=0.5;entryDx=0;entryDy=0;" parent="1" target="21" edge="1">
          <mxGeometry width="50" height="50" relative="1" as="geometry">
            <mxPoint x="60" y="540" as="sourcePoint" />
            <mxPoint y="470" as="targetPoint" />
          </mxGeometry>
        </mxCell>
      </root>
    </mxGraphModel>
  </diagram>
  <diagram id="vrsnEawfTba3FTDxsDPd" name="第 2 页">
    <mxGraphModel dx="1282" dy="608" grid="0" gridSize="10" guides="1" tooltips="1" connect="1" arrows="1" fold="1" page="0" pageScale="1" pageWidth="827" pageHeight="1169" math="0" shadow="0">
      <root>
        <mxCell id="0" />
        <mxCell id="1" parent="0" />
        <mxCell id="dCKM9clte99TqJWzsocL-1" value="团队管理员" style="shape=umlActor;verticalLabelPosition=bottom;verticalAlign=top;html=1;outlineConnect=0;" parent="1" vertex="1">
          <mxGeometry x="200" y="230" width="60" height="80" as="geometry" />
        </mxCell>
        <mxCell id="BQdxOcpvan1_jkOm_Iql-3" value="操作志愿活动" style="ellipse;whiteSpace=wrap;html=1;" parent="1" vertex="1">
          <mxGeometry x="320" y="340" width="120" height="45" as="geometry" />
        </mxCell>
        <mxCell id="BQdxOcpvan1_jkOm_Iql-8" value="管理团员" style="ellipse;whiteSpace=wrap;html=1;" parent="1" vertex="1">
          <mxGeometry x="320" y="135" width="120" height="40" as="geometry" />
        </mxCell>
        <mxCell id="BQdxOcpvan1_jkOm_Iql-10" value="删除团员" style="ellipse;whiteSpace=wrap;html=1;" parent="1" vertex="1">
          <mxGeometry x="460" y="70" width="120" height="30" as="geometry" />
        </mxCell>
        <mxCell id="BQdxOcpvan1_jkOm_Iql-11" value="添加团员" style="ellipse;whiteSpace=wrap;html=1;" parent="1" vertex="1">
          <mxGeometry x="490" y="140" width="120" height="30" as="geometry" />
        </mxCell>
        <mxCell id="BQdxOcpvan1_jkOm_Iql-12" value="发布志愿活动" style="ellipse;whiteSpace=wrap;html=1;" parent="1" vertex="1">
          <mxGeometry x="460" y="200" width="120" height="30" as="geometry" />
        </mxCell>
        <mxCell id="BQdxOcpvan1_jkOm_Iql-13" value="删除志愿活动" style="ellipse;whiteSpace=wrap;html=1;" parent="1" vertex="1">
          <mxGeometry x="460" y="270" width="120" height="40" as="geometry" />
        </mxCell>
        <mxCell id="BQdxOcpvan1_jkOm_Iql-14" value="修改志愿活动" style="ellipse;whiteSpace=wrap;html=1;" parent="1" vertex="1">
          <mxGeometry x="460" y="420" width="120" height="40" as="geometry" />
        </mxCell>
        <mxCell id="BQdxOcpvan1_jkOm_Iql-15" value="查看志愿活动" style="ellipse;whiteSpace=wrap;html=1;" parent="1" vertex="1">
          <mxGeometry x="500" y="340" width="120" height="40" as="geometry" />
        </mxCell>
        <mxCell id="BQdxOcpvan1_jkOm_Iql-17" value="" style="endArrow=none;dashed=1;html=1;entryX=0.214;entryY=0.975;entryDx=0;entryDy=0;entryPerimeter=0;exitX=0.856;exitY=-0.029;exitDx=0;exitDy=0;exitPerimeter=0;" parent="1" source="BQdxOcpvan1_jkOm_Iql-8" target="BQdxOcpvan1_jkOm_Iql-10" edge="1">
          <mxGeometry width="50" height="50" relative="1" as="geometry">
            <mxPoint x="310" y="290" as="sourcePoint" />
            <mxPoint x="360" y="240" as="targetPoint" />
          </mxGeometry>
        </mxCell>
        <mxCell id="BQdxOcpvan1_jkOm_Iql-18" value="" style="endArrow=none;dashed=1;html=1;entryX=0;entryY=0.5;entryDx=0;entryDy=0;exitX=1;exitY=0.5;exitDx=0;exitDy=0;" parent="1" source="BQdxOcpvan1_jkOm_Iql-8" target="BQdxOcpvan1_jkOm_Iql-11" edge="1">
          <mxGeometry width="50" height="50" relative="1" as="geometry">
            <mxPoint x="310" y="290" as="sourcePoint" />
            <mxPoint x="360" y="240" as="targetPoint" />
          </mxGeometry>
        </mxCell>
        <mxCell id="BQdxOcpvan1_jkOm_Iql-19" value="" style="endArrow=none;dashed=1;html=1;entryX=0.05;entryY=0.817;entryDx=0;entryDy=0;entryPerimeter=0;" parent="1" target="BQdxOcpvan1_jkOm_Iql-12" edge="1">
          <mxGeometry width="50" height="50" relative="1" as="geometry">
            <mxPoint x="400" y="340" as="sourcePoint" />
            <mxPoint x="440" y="200" as="targetPoint" />
          </mxGeometry>
        </mxCell>
        <mxCell id="BQdxOcpvan1_jkOm_Iql-20" value="" style="endArrow=none;dashed=1;html=1;entryX=0;entryY=1;entryDx=0;entryDy=0;exitX=0.922;exitY=0.206;exitDx=0;exitDy=0;exitPerimeter=0;" parent="1" source="BQdxOcpvan1_jkOm_Iql-3" target="BQdxOcpvan1_jkOm_Iql-13" edge="1">
          <mxGeometry width="50" height="50" relative="1" as="geometry">
            <mxPoint x="310" y="290" as="sourcePoint" />
            <mxPoint x="360" y="240" as="targetPoint" />
          </mxGeometry>
        </mxCell>
        <mxCell id="BQdxOcpvan1_jkOm_Iql-21" value="" style="endArrow=none;dashed=1;html=1;exitX=1;exitY=1;exitDx=0;exitDy=0;" parent="1" source="BQdxOcpvan1_jkOm_Iql-3" edge="1">
          <mxGeometry width="50" height="50" relative="1" as="geometry">
            <mxPoint x="414" y="480" as="sourcePoint" />
            <mxPoint x="464" y="430" as="targetPoint" />
          </mxGeometry>
        </mxCell>
        <mxCell id="BQdxOcpvan1_jkOm_Iql-22" value="" style="endArrow=none;dashed=1;html=1;exitX=1;exitY=0.5;exitDx=0;exitDy=0;" parent="1" source="BQdxOcpvan1_jkOm_Iql-3" edge="1">
          <mxGeometry width="50" height="50" relative="1" as="geometry">
            <mxPoint x="450" y="410" as="sourcePoint" />
            <mxPoint x="500" y="360" as="targetPoint" />
          </mxGeometry>
        </mxCell>
        <mxCell id="BQdxOcpvan1_jkOm_Iql-23" value="" style="endArrow=classic;html=1;" parent="1" edge="1">
          <mxGeometry width="50" height="50" relative="1" as="geometry">
            <mxPoint x="270" y="260" as="sourcePoint" />
            <mxPoint x="340" y="180" as="targetPoint" />
          </mxGeometry>
        </mxCell>
        <mxCell id="BQdxOcpvan1_jkOm_Iql-24" value="" style="endArrow=classic;html=1;entryX=0.016;entryY=0.132;entryDx=0;entryDy=0;entryPerimeter=0;" parent="1" target="BQdxOcpvan1_jkOm_Iql-3" edge="1">
          <mxGeometry width="50" height="50" relative="1" as="geometry">
            <mxPoint x="270" y="270" as="sourcePoint" />
            <mxPoint x="360" y="240" as="targetPoint" />
          </mxGeometry>
        </mxCell>
        <mxCell id="BQdxOcpvan1_jkOm_Iql-25" value="用户" style="shape=umlActor;verticalLabelPosition=bottom;verticalAlign=top;html=1;outlineConnect=0;" parent="1" vertex="1">
          <mxGeometry y="225" width="70" height="90" as="geometry" />
        </mxCell>
        <mxCell id="00ChXxiHepi0yAv-nB8T-1" value="" style="endArrow=none;html=1;startArrow=none;" parent="1" source="00ChXxiHepi0yAv-nB8T-2" edge="1">
          <mxGeometry width="50" height="50" relative="1" as="geometry">
            <mxPoint x="130" y="260" as="sourcePoint" />
            <mxPoint x="200" y="250" as="targetPoint" />
          </mxGeometry>
        </mxCell>
        <mxCell id="00ChXxiHepi0yAv-nB8T-2" value="" style="triangle;whiteSpace=wrap;html=1;direction=west;" parent="1" vertex="1">
          <mxGeometry x="80" y="240" width="20" height="20" as="geometry" />
        </mxCell>
        <mxCell id="00ChXxiHepi0yAv-nB8T-7" value="" style="rounded=1;whiteSpace=wrap;html=1;" parent="1" vertex="1">
          <mxGeometry x="-240" y="125" width="120" height="60" as="geometry" />
        </mxCell>
        <mxCell id="00ChXxiHepi0yAv-nB8T-9" value="管理活动报名" style="ellipse;whiteSpace=wrap;html=1;" parent="1" vertex="1">
          <mxGeometry x="210" y="570" width="120" height="50" as="geometry" />
        </mxCell>
        <mxCell id="00ChXxiHepi0yAv-nB8T-10" value="审核报名信息" style="ellipse;whiteSpace=wrap;html=1;" parent="1" vertex="1">
          <mxGeometry x="400" y="490" width="120" height="40" as="geometry" />
        </mxCell>
        <mxCell id="00ChXxiHepi0yAv-nB8T-11" value="驳回报名申请" style="ellipse;whiteSpace=wrap;html=1;" parent="1" vertex="1">
          <mxGeometry x="400" y="575" width="120" height="40" as="geometry" />
        </mxCell>
        <mxCell id="00ChXxiHepi0yAv-nB8T-12" value="查看报名信息" style="ellipse;whiteSpace=wrap;html=1;" parent="1" vertex="1">
          <mxGeometry x="400" y="650" width="120" height="40" as="geometry" />
        </mxCell>
        <mxCell id="00ChXxiHepi0yAv-nB8T-13" value="" style="endArrow=none;dashed=1;html=1;exitX=0.767;exitY=-0.02;exitDx=0;exitDy=0;exitPerimeter=0;entryX=-0.033;entryY=0.738;entryDx=0;entryDy=0;entryPerimeter=0;" parent="1" source="00ChXxiHepi0yAv-nB8T-9" target="00ChXxiHepi0yAv-nB8T-10" edge="1">
          <mxGeometry width="50" height="50" relative="1" as="geometry">
            <mxPoint x="370" y="470" as="sourcePoint" />
            <mxPoint x="420" y="420" as="targetPoint" />
          </mxGeometry>
        </mxCell>
        <mxCell id="00ChXxiHepi0yAv-nB8T-14" value="" style="endArrow=none;dashed=1;html=1;exitX=1;exitY=0.5;exitDx=0;exitDy=0;entryX=0;entryY=0.5;entryDx=0;entryDy=0;" parent="1" source="00ChXxiHepi0yAv-nB8T-9" target="00ChXxiHepi0yAv-nB8T-11" edge="1">
          <mxGeometry width="50" height="50" relative="1" as="geometry">
            <mxPoint x="370" y="470" as="sourcePoint" />
            <mxPoint x="420" y="420" as="targetPoint" />
          </mxGeometry>
        </mxCell>
        <mxCell id="00ChXxiHepi0yAv-nB8T-15" value="" style="endArrow=none;dashed=1;html=1;exitX=0.775;exitY=1.01;exitDx=0;exitDy=0;exitPerimeter=0;entryX=0;entryY=0.5;entryDx=0;entryDy=0;" parent="1" source="00ChXxiHepi0yAv-nB8T-9" target="00ChXxiHepi0yAv-nB8T-12" edge="1">
          <mxGeometry width="50" height="50" relative="1" as="geometry">
            <mxPoint x="370" y="470" as="sourcePoint" />
            <mxPoint x="420" y="420" as="targetPoint" />
          </mxGeometry>
        </mxCell>
        <mxCell id="00ChXxiHepi0yAv-nB8T-16" value="" style="endArrow=classic;html=1;entryX=0.438;entryY=0.01;entryDx=0;entryDy=0;entryPerimeter=0;" parent="1" target="00ChXxiHepi0yAv-nB8T-9" edge="1">
          <mxGeometry width="50" height="50" relative="1" as="geometry">
            <mxPoint x="240" y="330" as="sourcePoint" />
            <mxPoint x="420" y="420" as="targetPoint" />
          </mxGeometry>
        </mxCell>
        <mxCell id="00ChXxiHepi0yAv-nB8T-17" value="用户" style="shape=umlActor;verticalLabelPosition=bottom;verticalAlign=top;html=1;outlineConnect=0;" parent="1" vertex="1">
          <mxGeometry x="-270" y="940" width="70" height="95" as="geometry" />
        </mxCell>
        <mxCell id="iY9Y1AyrjPd4HT_Yn4eb-63" value="" style="edgeStyle=none;html=1;" parent="1" source="iY9Y1AyrjPd4HT_Yn4eb-1" target="iY9Y1AyrjPd4HT_Yn4eb-58" edge="1">
          <mxGeometry relative="1" as="geometry" />
        </mxCell>
        <mxCell id="iY9Y1AyrjPd4HT_Yn4eb-1" value="系统管理员" style="shape=umlActor;verticalLabelPosition=bottom;verticalAlign=top;html=1;outlineConnect=0;" parent="1" vertex="1">
          <mxGeometry x="110" y="945" width="60" height="80" as="geometry" />
        </mxCell>
        <mxCell id="iY9Y1AyrjPd4HT_Yn4eb-6" value="管理用户" style="ellipse;whiteSpace=wrap;html=1;" parent="1" vertex="1">
          <mxGeometry x="240" y="960" width="120" height="40" as="geometry" />
        </mxCell>
        <mxCell id="iY9Y1AyrjPd4HT_Yn4eb-7" value="管理志愿团队" style="ellipse;whiteSpace=wrap;html=1;" parent="1" vertex="1">
          <mxGeometry x="234" y="1240" width="120" height="50" as="geometry" />
        </mxCell>
        <mxCell id="iY9Y1AyrjPd4HT_Yn4eb-8" value="管理志愿活动" style="ellipse;whiteSpace=wrap;html=1;" parent="1" vertex="1">
          <mxGeometry x="50" y="1240" width="120" height="50" as="geometry" />
        </mxCell>
        <mxCell id="iY9Y1AyrjPd4HT_Yn4eb-9" value="管理文章" style="ellipse;whiteSpace=wrap;html=1;" parent="1" vertex="1">
          <mxGeometry x="240" y="830" width="120" height="40" as="geometry" />
        </mxCell>
        <mxCell id="iY9Y1AyrjPd4HT_Yn4eb-11" value="审核文章" style="ellipse;whiteSpace=wrap;html=1;" parent="1" vertex="1">
          <mxGeometry x="430" y="780" width="120" height="40" as="geometry" />
        </mxCell>
        <mxCell id="iY9Y1AyrjPd4HT_Yn4eb-12" value="查看文章" style="ellipse;whiteSpace=wrap;html=1;" parent="1" vertex="1">
          <mxGeometry x="440" y="850" width="120" height="40" as="geometry" />
        </mxCell>
        <mxCell id="iY9Y1AyrjPd4HT_Yn4eb-13" value="" style="endArrow=classic;html=1;" parent="1" edge="1">
          <mxGeometry width="50" height="50" relative="1" as="geometry">
            <mxPoint x="180" y="970" as="sourcePoint" />
            <mxPoint x="250" y="860" as="targetPoint" />
          </mxGeometry>
        </mxCell>
        <mxCell id="iY9Y1AyrjPd4HT_Yn4eb-15" value="" style="endArrow=none;dashed=1;html=1;exitX=1;exitY=0.5;exitDx=0;exitDy=0;entryX=-0.004;entryY=0.788;entryDx=0;entryDy=0;entryPerimeter=0;" parent="1" source="iY9Y1AyrjPd4HT_Yn4eb-9" target="iY9Y1AyrjPd4HT_Yn4eb-11" edge="1">
          <mxGeometry width="50" height="50" relative="1" as="geometry">
            <mxPoint x="370" y="850" as="sourcePoint" />
            <mxPoint x="440" y="850" as="targetPoint" />
          </mxGeometry>
        </mxCell>
        <mxCell id="iY9Y1AyrjPd4HT_Yn4eb-16" value="" style="endArrow=none;dashed=1;html=1;entryX=-0.025;entryY=0.263;entryDx=0;entryDy=0;entryPerimeter=0;" parent="1" target="iY9Y1AyrjPd4HT_Yn4eb-12" edge="1">
          <mxGeometry width="50" height="50" relative="1" as="geometry">
            <mxPoint x="360" y="850" as="sourcePoint" />
            <mxPoint x="420" y="850" as="targetPoint" />
          </mxGeometry>
        </mxCell>
        <mxCell id="iY9Y1AyrjPd4HT_Yn4eb-20" value="" style="endArrow=classic;html=1;" parent="1" edge="1">
          <mxGeometry width="50" height="50" relative="1" as="geometry">
            <mxPoint x="180" y="980" as="sourcePoint" />
            <mxPoint x="240" y="980" as="targetPoint" />
          </mxGeometry>
        </mxCell>
        <mxCell id="iY9Y1AyrjPd4HT_Yn4eb-21" value="冻结用户" style="ellipse;whiteSpace=wrap;html=1;" parent="1" vertex="1">
          <mxGeometry x="414" y="905" width="120" height="40" as="geometry" />
        </mxCell>
        <mxCell id="iY9Y1AyrjPd4HT_Yn4eb-22" value="查看用户" style="ellipse;whiteSpace=wrap;html=1;" parent="1" vertex="1">
          <mxGeometry x="414" y="1020" width="120" height="45" as="geometry" />
        </mxCell>
        <mxCell id="iY9Y1AyrjPd4HT_Yn4eb-23" value="审核用户" style="ellipse;whiteSpace=wrap;html=1;" parent="1" vertex="1">
          <mxGeometry x="414" y="960" width="120" height="45" as="geometry" />
        </mxCell>
        <mxCell id="iY9Y1AyrjPd4HT_Yn4eb-25" value="" style="endArrow=none;dashed=1;html=1;exitX=1;exitY=0.5;exitDx=0;exitDy=0;entryX=0;entryY=0.5;entryDx=0;entryDy=0;" parent="1" source="iY9Y1AyrjPd4HT_Yn4eb-6" target="iY9Y1AyrjPd4HT_Yn4eb-21" edge="1">
          <mxGeometry width="50" height="50" relative="1" as="geometry">
            <mxPoint x="370" y="1100" as="sourcePoint" />
            <mxPoint x="420" y="1050" as="targetPoint" />
          </mxGeometry>
        </mxCell>
        <mxCell id="iY9Y1AyrjPd4HT_Yn4eb-26" value="" style="endArrow=none;dashed=1;html=1;exitX=1.008;exitY=0.713;exitDx=0;exitDy=0;exitPerimeter=0;" parent="1" source="iY9Y1AyrjPd4HT_Yn4eb-6" edge="1">
          <mxGeometry width="50" height="50" relative="1" as="geometry">
            <mxPoint x="370" y="1100" as="sourcePoint" />
            <mxPoint x="420" y="1050" as="targetPoint" />
          </mxGeometry>
        </mxCell>
        <mxCell id="iY9Y1AyrjPd4HT_Yn4eb-27" value="" style="endArrow=none;dashed=1;html=1;exitX=1;exitY=0.5;exitDx=0;exitDy=0;entryX=0;entryY=0.5;entryDx=0;entryDy=0;" parent="1" source="iY9Y1AyrjPd4HT_Yn4eb-6" target="iY9Y1AyrjPd4HT_Yn4eb-23" edge="1">
          <mxGeometry width="50" height="50" relative="1" as="geometry">
            <mxPoint x="370" y="1100" as="sourcePoint" />
            <mxPoint x="420" y="1050" as="targetPoint" />
          </mxGeometry>
        </mxCell>
        <mxCell id="iY9Y1AyrjPd4HT_Yn4eb-28" value="查看志愿团队" style="ellipse;whiteSpace=wrap;html=1;" parent="1" vertex="1">
          <mxGeometry x="430" y="1220" width="120" height="40" as="geometry" />
        </mxCell>
        <mxCell id="iY9Y1AyrjPd4HT_Yn4eb-29" value="删除志愿团队" style="ellipse;whiteSpace=wrap;html=1;" parent="1" vertex="1">
          <mxGeometry x="354" y="1160" width="120" height="40" as="geometry" />
        </mxCell>
        <mxCell id="iY9Y1AyrjPd4HT_Yn4eb-30" value="修改用户信息" style="ellipse;whiteSpace=wrap;html=1;" parent="1" vertex="1">
          <mxGeometry x="340" y="1090" width="120" height="50" as="geometry" />
        </mxCell>
        <mxCell id="iY9Y1AyrjPd4HT_Yn4eb-31" value="修改志愿团队信息" style="ellipse;whiteSpace=wrap;html=1;" parent="1" vertex="1">
          <mxGeometry x="354" y="1350" width="120" height="40" as="geometry" />
        </mxCell>
        <mxCell id="iY9Y1AyrjPd4HT_Yn4eb-32" value="审核志愿团队" style="ellipse;whiteSpace=wrap;html=1;" parent="1" vertex="1">
          <mxGeometry x="440" y="1280" width="120" height="40" as="geometry" />
        </mxCell>
        <mxCell id="iY9Y1AyrjPd4HT_Yn4eb-33" value="" style="endArrow=none;dashed=1;html=1;exitX=0.8;exitY=1.125;exitDx=0;exitDy=0;exitPerimeter=0;" parent="1" source="iY9Y1AyrjPd4HT_Yn4eb-6" edge="1">
          <mxGeometry width="50" height="50" relative="1" as="geometry">
            <mxPoint x="370" y="1200" as="sourcePoint" />
            <mxPoint x="390" y="1090" as="targetPoint" />
          </mxGeometry>
        </mxCell>
        <mxCell id="iY9Y1AyrjPd4HT_Yn4eb-34" value="" style="endArrow=classic;html=1;entryX=0.304;entryY=0.05;entryDx=0;entryDy=0;entryPerimeter=0;" parent="1" target="iY9Y1AyrjPd4HT_Yn4eb-7" edge="1">
          <mxGeometry width="50" height="50" relative="1" as="geometry">
            <mxPoint x="180" y="990" as="sourcePoint" />
            <mxPoint x="420" y="1050" as="targetPoint" />
          </mxGeometry>
        </mxCell>
        <mxCell id="iY9Y1AyrjPd4HT_Yn4eb-35" value="" style="endArrow=none;dashed=1;html=1;exitX=0.779;exitY=0.01;exitDx=0;exitDy=0;exitPerimeter=0;" parent="1" source="iY9Y1AyrjPd4HT_Yn4eb-7" edge="1">
          <mxGeometry width="50" height="50" relative="1" as="geometry">
            <mxPoint x="370" y="1200" as="sourcePoint" />
            <mxPoint x="380" y="1200" as="targetPoint" />
          </mxGeometry>
        </mxCell>
        <mxCell id="iY9Y1AyrjPd4HT_Yn4eb-36" value="" style="endArrow=none;dashed=1;html=1;exitX=0.988;exitY=0.38;exitDx=0;exitDy=0;exitPerimeter=0;entryX=-0.025;entryY=0.775;entryDx=0;entryDy=0;entryPerimeter=0;" parent="1" source="iY9Y1AyrjPd4HT_Yn4eb-7" target="iY9Y1AyrjPd4HT_Yn4eb-28" edge="1">
          <mxGeometry width="50" height="50" relative="1" as="geometry">
            <mxPoint x="370" y="1200" as="sourcePoint" />
            <mxPoint x="420" y="1150" as="targetPoint" />
          </mxGeometry>
        </mxCell>
        <mxCell id="iY9Y1AyrjPd4HT_Yn4eb-37" value="" style="endArrow=none;dashed=1;html=1;exitX=0.992;exitY=0.66;exitDx=0;exitDy=0;exitPerimeter=0;entryX=-0.042;entryY=0.37;entryDx=0;entryDy=0;entryPerimeter=0;" parent="1" source="iY9Y1AyrjPd4HT_Yn4eb-7" target="iY9Y1AyrjPd4HT_Yn4eb-32" edge="1">
          <mxGeometry width="50" height="50" relative="1" as="geometry">
            <mxPoint x="370" y="1300" as="sourcePoint" />
            <mxPoint x="420" y="1250" as="targetPoint" />
          </mxGeometry>
        </mxCell>
        <mxCell id="iY9Y1AyrjPd4HT_Yn4eb-38" value="" style="endArrow=none;dashed=1;html=1;exitX=1;exitY=1;exitDx=0;exitDy=0;entryX=0.354;entryY=-0.06;entryDx=0;entryDy=0;entryPerimeter=0;" parent="1" source="iY9Y1AyrjPd4HT_Yn4eb-7" target="iY9Y1AyrjPd4HT_Yn4eb-31" edge="1">
          <mxGeometry width="50" height="50" relative="1" as="geometry">
            <mxPoint x="370" y="1300" as="sourcePoint" />
            <mxPoint x="420" y="1250" as="targetPoint" />
          </mxGeometry>
        </mxCell>
        <mxCell id="iY9Y1AyrjPd4HT_Yn4eb-39" value="查看志愿活动" style="ellipse;whiteSpace=wrap;html=1;" parent="1" vertex="1">
          <mxGeometry x="-70" y="1350" width="120" height="50" as="geometry" />
        </mxCell>
        <mxCell id="iY9Y1AyrjPd4HT_Yn4eb-40" value="删除志愿活动" style="ellipse;whiteSpace=wrap;html=1;" parent="1" vertex="1">
          <mxGeometry x="60" y="1350" width="120" height="50" as="geometry" />
        </mxCell>
        <mxCell id="iY9Y1AyrjPd4HT_Yn4eb-42" value="修改志愿活动" style="ellipse;whiteSpace=wrap;html=1;" parent="1" vertex="1">
          <mxGeometry x="190" y="1350" width="120" height="50" as="geometry" />
        </mxCell>
        <mxCell id="iY9Y1AyrjPd4HT_Yn4eb-43" value="" style="endArrow=none;dashed=1;html=1;exitX=0.571;exitY=0;exitDx=0;exitDy=0;exitPerimeter=0;entryX=0.013;entryY=0.73;entryDx=0;entryDy=0;entryPerimeter=0;" parent="1" source="iY9Y1AyrjPd4HT_Yn4eb-39" target="iY9Y1AyrjPd4HT_Yn4eb-8" edge="1">
          <mxGeometry width="50" height="50" relative="1" as="geometry">
            <mxPoint x="370" y="1200" as="sourcePoint" />
            <mxPoint x="420" y="1150" as="targetPoint" />
          </mxGeometry>
        </mxCell>
        <mxCell id="iY9Y1AyrjPd4HT_Yn4eb-44" value="" style="endArrow=none;dashed=1;html=1;exitX=0.5;exitY=0;exitDx=0;exitDy=0;entryX=0.558;entryY=1.07;entryDx=0;entryDy=0;entryPerimeter=0;" parent="1" source="iY9Y1AyrjPd4HT_Yn4eb-40" target="iY9Y1AyrjPd4HT_Yn4eb-8" edge="1">
          <mxGeometry width="50" height="50" relative="1" as="geometry">
            <mxPoint x="370" y="1200" as="sourcePoint" />
            <mxPoint x="420" y="1150" as="targetPoint" />
          </mxGeometry>
        </mxCell>
        <mxCell id="iY9Y1AyrjPd4HT_Yn4eb-45" value="" style="endArrow=none;dashed=1;html=1;exitX=0.413;exitY=-0.02;exitDx=0;exitDy=0;exitPerimeter=0;entryX=1;entryY=1;entryDx=0;entryDy=0;" parent="1" source="iY9Y1AyrjPd4HT_Yn4eb-42" target="iY9Y1AyrjPd4HT_Yn4eb-8" edge="1">
          <mxGeometry width="50" height="50" relative="1" as="geometry">
            <mxPoint x="370" y="1200" as="sourcePoint" />
            <mxPoint x="420" y="1150" as="targetPoint" />
          </mxGeometry>
        </mxCell>
        <mxCell id="iY9Y1AyrjPd4HT_Yn4eb-46" value="" style="endArrow=classic;html=1;entryX=0.5;entryY=0;entryDx=0;entryDy=0;" parent="1" target="iY9Y1AyrjPd4HT_Yn4eb-8" edge="1">
          <mxGeometry width="50" height="50" relative="1" as="geometry">
            <mxPoint x="130" y="1040" as="sourcePoint" />
            <mxPoint x="420" y="1050" as="targetPoint" />
          </mxGeometry>
        </mxCell>
        <mxCell id="iY9Y1AyrjPd4HT_Yn4eb-51" value="" style="triangle;whiteSpace=wrap;html=1;direction=west;" parent="1" vertex="1">
          <mxGeometry y="960" width="20" height="20" as="geometry" />
        </mxCell>
        <mxCell id="iY9Y1AyrjPd4HT_Yn4eb-52" value="" style="endArrow=none;html=1;exitX=0;exitY=0.5;exitDx=0;exitDy=0;" parent="1" source="iY9Y1AyrjPd4HT_Yn4eb-51" edge="1">
          <mxGeometry width="50" height="50" relative="1" as="geometry">
            <mxPoint x="370" y="1000" as="sourcePoint" />
            <mxPoint x="100" y="970" as="targetPoint" />
          </mxGeometry>
        </mxCell>
        <mxCell id="iY9Y1AyrjPd4HT_Yn4eb-53" value="团队管理员" style="shape=umlActor;verticalLabelPosition=bottom;verticalAlign=top;html=1;outlineConnect=0;" parent="1" vertex="1">
          <mxGeometry x="-90" y="940" width="70" height="90" as="geometry" />
        </mxCell>
        <mxCell id="iY9Y1AyrjPd4HT_Yn4eb-56" value="" style="triangle;whiteSpace=wrap;html=1;direction=west;" parent="1" vertex="1">
          <mxGeometry x="-190" y="960" width="20" height="20" as="geometry" />
        </mxCell>
        <mxCell id="iY9Y1AyrjPd4HT_Yn4eb-57" value="" style="endArrow=none;html=1;exitX=0;exitY=0.5;exitDx=0;exitDy=0;" parent="1" source="iY9Y1AyrjPd4HT_Yn4eb-56" edge="1">
          <mxGeometry width="50" height="50" relative="1" as="geometry">
            <mxPoint x="210" y="1000" as="sourcePoint" />
            <mxPoint x="-100" y="970" as="targetPoint" />
          </mxGeometry>
        </mxCell>
        <mxCell id="iY9Y1AyrjPd4HT_Yn4eb-58" value="管理权限(角色)" style="ellipse;whiteSpace=wrap;html=1;" parent="1" vertex="1">
          <mxGeometry x="80" y="830" width="120" height="50" as="geometry" />
        </mxCell>
        <mxCell id="iY9Y1AyrjPd4HT_Yn4eb-59" value="查看权限" style="ellipse;whiteSpace=wrap;html=1;" parent="1" vertex="1">
          <mxGeometry x="-50" y="720" width="120" height="40" as="geometry" />
        </mxCell>
        <mxCell id="iY9Y1AyrjPd4HT_Yn4eb-60" value="删除权限" style="ellipse;whiteSpace=wrap;html=1;" parent="1" vertex="1">
          <mxGeometry x="90" y="717.5" width="120" height="45" as="geometry" />
        </mxCell>
        <mxCell id="iY9Y1AyrjPd4HT_Yn4eb-61" value="增加权限" style="ellipse;whiteSpace=wrap;html=1;" parent="1" vertex="1">
          <mxGeometry x="230" y="715" width="120" height="45" as="geometry" />
        </mxCell>
        <mxCell id="iY9Y1AyrjPd4HT_Yn4eb-62" value="" style="endArrow=classic;html=1;entryX=0.5;entryY=1;entryDx=0;entryDy=0;" parent="1" target="iY9Y1AyrjPd4HT_Yn4eb-58" edge="1">
          <mxGeometry width="50" height="50" relative="1" as="geometry">
            <mxPoint x="140" y="940" as="sourcePoint" />
            <mxPoint x="130" y="890" as="targetPoint" />
          </mxGeometry>
        </mxCell>
        <mxCell id="iY9Y1AyrjPd4HT_Yn4eb-64" value="" style="endArrow=none;dashed=1;html=1;exitX=0.65;exitY=1.013;exitDx=0;exitDy=0;exitPerimeter=0;" parent="1" source="iY9Y1AyrjPd4HT_Yn4eb-59" edge="1">
          <mxGeometry width="50" height="50" relative="1" as="geometry">
            <mxPoint x="120" y="910" as="sourcePoint" />
            <mxPoint x="110" y="830" as="targetPoint" />
          </mxGeometry>
        </mxCell>
        <mxCell id="iY9Y1AyrjPd4HT_Yn4eb-65" value="" style="endArrow=none;dashed=1;html=1;entryX=0.5;entryY=1;entryDx=0;entryDy=0;exitX=0.579;exitY=-0.03;exitDx=0;exitDy=0;exitPerimeter=0;" parent="1" source="iY9Y1AyrjPd4HT_Yn4eb-58" target="iY9Y1AyrjPd4HT_Yn4eb-60" edge="1">
          <mxGeometry width="50" height="50" relative="1" as="geometry">
            <mxPoint x="120" y="910" as="sourcePoint" />
            <mxPoint x="170" y="860" as="targetPoint" />
          </mxGeometry>
        </mxCell>
        <mxCell id="iY9Y1AyrjPd4HT_Yn4eb-66" value="" style="endArrow=none;dashed=1;html=1;entryX=0.208;entryY=1.056;entryDx=0;entryDy=0;entryPerimeter=0;exitX=0.729;exitY=0.01;exitDx=0;exitDy=0;exitPerimeter=0;" parent="1" source="iY9Y1AyrjPd4HT_Yn4eb-58" target="iY9Y1AyrjPd4HT_Yn4eb-61" edge="1">
          <mxGeometry width="50" height="50" relative="1" as="geometry">
            <mxPoint x="120" y="910" as="sourcePoint" />
            <mxPoint x="170" y="860" as="targetPoint" />
          </mxGeometry>
        </mxCell>
      </root>
    </mxGraphModel>
  </diagram>
  <diagram id="WQePgSZFcyEr9GXbl_wL" name="第 3 页">
    <mxGraphModel dx="878" dy="663" grid="1" gridSize="10" guides="1" tooltips="1" connect="1" arrows="1" fold="1" page="1" pageScale="1" pageWidth="827" pageHeight="1169" math="0" shadow="0">
      <root>
        <mxCell id="0" />
        <mxCell id="1" parent="0" />
      </root>
    </mxGraphModel>
  </diagram>
</mxfile>
